<svg xmlns="http://www.w3.org/2000/svg" xmlns:xlink="http://www.w3.org/1999/xlink" viewBox="0 0 700 500">
<defs>
<style type="text/css"><![CDATA[
  .borderLine {
	   stroke: none;
	   fill-opacity: 0.4000;
  }
  .outLine {
	   stroke-width: 1.0000;
	   fill: none;
  }
  .circle {
	   stroke: #888888;
	   stroke-width: 0.5;
	   fill: none;
    pointer-events: all;
  }
  .spcircle {
	   stroke: #FF2222;
	   stroke-width: 1;
	   fill: #000000;
	   opacity: 0.2;
    pointer-events: all;
  }
  .tLabel {
	   font-family: Arial;
    pointer-events: none;
	   font-size: 14px;
	   text-anchor: middle;
	   alignment-baseline: central;
  }
  .nLabel {
	   font-family: Arial;
    pointer-events: none;
	   font-size: 10px;
	   text-anchor: middle;
	   alignment-baseline: central;
  }
  .belong {
	   font-family: Arial;
    pointer-events: none;
	   font-size: 5px;
	   text-anchor: middle;
	   alignment-baseline: central;
  }
  .p0{
    stroke: none;
    fill: #e6194b;
  }
  .q0{
    fill: none;
    stroke: #e6194b;
  }
  .p1{
    stroke: none;
    fill: #3cb44b;
  }
  .q1{
    fill: none;
    stroke: #3cb44b;
  }
  .p2{
    stroke: none;
    fill: #ffe119;
  }
  .q2{
    fill: none;
    stroke: #ffe119;
  }
]]>
</style>
<symbol id="bl0">
<path d="M 155.05 57.96 L 155.05 57.96 L 101.79 93.13 L 76.58 157.93 L 53.27 222.60 L 35.18 287.21 L 59.32 339.10 L 109.25 377.51 L 158.78 414.22 L 207.15 447.42 L 303.79 411.46 L 321.52 369.92 L 354.95 332.18 L 363.52 268.99 L 313.86 199.11 L 258.25 136.08 L 220.47 75.17 Z" />
</symbol>
<symbol id="bl1">
<path d="M 406.19 213.25 L 406.19 213.25 L 356.04 208.27 L 303.51 193.26 L 253.70 188.51 L 211.48 214.53 L 184.06 244.70 L 173.77 294.75 L 185.90 368.87 L 196.62 437.89 L 232.09 479.19 L 299.68 482.24 L 362.75 485.03 L 419.22 469.17 L 444.69 417.20 L 447.31 356.93 L 449.93 299.96 L 447.44 232.53 Z" />
</symbol>
<symbol id="bl2">
<path d="M 388.01 21.71 L 388.01 21.71 L 323.06 16.56 L 260.01 33.39 L 199.90 49.54 L 143.16 63.85 L 94.96 103.96 L 86.03 165.89 L 123.17 213.98 L 167.05 250.98 L 172.02 306.42 L 216.77 373.06 L 283.96 389.77 L 350.15 348.12 L 415.29 326.54 L 462.97 285.07 L 454.62 213.87 L 447.81 144.72 L 439.17 77.85 Z" />
</symbol>
</defs>
<desc>STEP: 6</desc>
<desc id='result'>F;6;L;-4.59051;-5.82615;-5.74834;-5.06156;-6.29645;-3.65289;-6.80325;-2.24695;-7.19646;
-0.84241;-6.67173;0.285868;-5.58611;1.12079;-4.50945;1.91887;-3.45775;2.64063;-1.35683;
1.85879;-0.971319;0.955804;-0.244693;0.135342;-0.0583039;-1.2384;-1.13802;-2.7575;
-2.34683;-4.12784;-3.16825;-5.4521;L;0.869282;-2.45022;-0.220997;-2.55854;-1.36301;
-2.88486;-2.44579;-2.988;-3.36357;-2.4224;-3.95973;-1.76643;-4.18357;-0.678409;-3.91969;
0.932934;-3.68683;2.43341;-2.91561;3.33137;-1.44622;3.39767;-0.075024;3.45824;1.15261;
3.11348;1.70625;1.9837;1.76335;0.673321;1.82011;-0.565089;1.76599;-2.0311;L;0.474067;
-6.61421;-0.937982;-6.72618;-2.30859;-6.3604;-3.61542;-6.00934;-4.84891;-5.69822;
-5.89682;-4.82611;-6.09094;-3.47971;-5.28359;-2.4344;-4.32959;-1.62998;-4.22159;-0.424717;
-3.24861;1.02412;-1.78786;1.38735;-0.349078;0.481808;1.06711;0.012783;2.1038;-0.888856;
1.92226;-2.43666;1.77422;-3.94001;1.5863;-5.3937;C;-5.69082;-0.946685;1.41421;1;2;
0.158816;1.93419;1.41421;2;2;-2.45474;2.32205;1;3;1;-0.394279;-4.68201;2;4;4;-4.28733;
-3.98892;1.73205;5;3;1.03163;-1.2621;1;6;1;-2.0509;-0.828244;2;7;4;
S;SAS;A014;A013;A012;A011;A006;A005;A004;A003;A008;A001;S;PYTHON;A017;A012;A018;A011;
A003;A004;A002;A001;S;R;A015;A014;A013;A012;A011;A009;A010;A006;A004;A002;A016;A001;
</desc>
<rect width="700" height="500" style="fill:#fff;stroke-width:0" />
<use class="p0 borderLine" xlink:href="#bl0"/>
<use class="p1 borderLine" xlink:href="#bl1"/>
<use class="p2 borderLine" xlink:href="#bl2"/>
<use class="q0 outLine" xlink:href="#bl0"/>
<use class="q1 outLine" xlink:href="#bl1"/>
<use class="q2 outLine" xlink:href="#bl2"/>
<circle onclick="fromCircle(1)" class="circle" cx="104.4356" cy="282.4089" r="65.0515" />
<text class="nLabel" x="104.44" y="277.41">2</text>
<text class="belong" x="104.44" y="287.41">(1)</text>
<circle onclick="fromCircle(2)" class="circle" cx="373.5089" cy="414.9243" r="65.0515" />
<text class="nLabel" x="373.51" y="409.92">2</text>
<text class="belong" x="373.51" y="419.92">(2)</text>
<circle onclick="fromCircle(3)" class="circle" cx="253.2896" cy="432.7651" r="45.9983" />
<text class="nLabel" x="253.29" y="427.77">1</text>
<text class="belong" x="253.29" y="437.77">(1, 2)</text>
<circle onclick="fromCircle(4)" class="circle" cx="348.0674" cy="110.5904" r="91.9967" />
<text class="nLabel" x="348.07" y="105.59">4</text>
<text class="belong" x="348.07" y="115.59">(3)</text>
<circle onclick="fromCircle(5)" class="circle" cx="168.9936" cy="142.4712" r="79.6714" />
<text class="nLabel" x="168.99" y="137.47">3</text>
<text class="belong" x="168.99" y="147.47">(1, 3)</text>
<circle onclick="fromCircle(6)" class="circle" cx="413.6567" cy="267.9004" r="45.9983" />
<text class="nLabel" x="413.66" y="262.90">1</text>
<text class="belong" x="413.66" y="272.90">(2, 3)</text>
<circle onclick="fromCircle(7)" class="circle" cx="271.8657" cy="287.8570" r="91.9967" />
<text class="nLabel" x="271.87" y="282.86">4</text>
<text class="belong" x="271.87" y="292.86">(1, 2, 3)</text>
<rect class="p0 borderLine" data-nbit="0" x="500.00" y="50.00" width="30.00" height="15.00" />
<rect class="q0" x="500.00" y="50.00" width="30.00" height="15.00" />
<text class="legend" x="540.00" y="65.00">SAS</text>
<rect class="p1 borderLine" data-nbit="1" x="500.00" y="90.00" width="30.00" height="15.00" />
<rect class="q1" x="500.00" y="90.00" width="30.00" height="15.00" />
<text class="legend" x="540.00" y="105.00">PYTHON</text>
<rect class="p2 borderLine" data-nbit="2" x="500.00" y="130.00" width="30.00" height="15.00" />
<rect class="q2" x="500.00" y="130.00" width="30.00" height="15.00" />
<text class="legend" x="540.00" y="145.00">R</text>
</svg>
